<?xml version="1.0" encoding="UTF-8"?>
<svg id="Layer_1" data-name="Layer 1" xmlns="http://www.w3.org/2000/svg" width="10" height="10" version="1.1" viewBox="0 0 10 10">
  <defs>
    <style>
      .cls-1 {
        fill: #38d1c3;
        stroke-width: 0px;
      }
    </style>
  </defs>
  <g id="Layer_2" data-name="Layer 2">
    <g id="Layer_1-2" data-name="Layer 1-2">
      <path class="cls-1" d="M5.76.76l-.76,1.24.76-1.24c.293-.475.812-.763,1.37-.76h.06c.415,0,.813.161,1.11.45.289.297.45.695.45,1.11.006.339-.103.671-.31.94h1.56v3.12h-.62v4.38H.62v-4.38h-.62v-3.12h1.56c-.194-.276-.302-.603-.31-.94,0-.415.161-.813.45-1.11C1.997.161,2.395,0,2.81,0h.06c.558-.003,1.077.285,1.37.76l.76,1.24.76-1.24ZM2.81,3.12H.62v1.88h4.07v-1.88h-1.88ZM1.25,5.62h0v3.76h3.44v-3.76H1.25ZM4.59,2.5l-.88-1.41.88,1.41-.88-1.41c-.181-.29-.498-.467-.84-.47h-.06c-.247.009-.482.108-.66.28-.168.179-.264.414-.27.66.003.249.1.488.27.67.179.168.414.264.66.27h1.78ZM5.31,3.12v1.88h4.07v-1.88s-4.07,0-4.07,0ZM8.75,9.38h0v-3.76h-3.44v3.76h3.44ZM6.29,1.09l-.88,1.41h1.78c.246-.006.481-.102.66-.27.17-.182.267-.421.27-.67-.006-.246-.102-.481-.27-.66-.178-.172-.413-.271-.66-.28h-.06c-.342.003-.659.18-.84.47Z"/>
    </g>
  </g>
</svg>