<?xml version="1.0" encoding="UTF-8"?>
<svg id="Layer_1" data-name="Layer 1" xmlns="http://www.w3.org/2000/svg" width="10" height="10" version="1.1" viewBox="0 0 10 10">
  <defs>
    <style>
      .cls-1 {
        fill: #38d1c3;
        stroke-width: 0px;
      }
    </style>
  </defs>
  <path class="cls-1" d="M9.97912,5.56389c-.06136-.14066-.23992-.21013-.39762-.15543l-1.89533.65225-2.0715-1.06072,2.07163-1.06076,1.8952.65231c.03662.01264.07413.01863.11119.01863.12303-.00013.23931-.06614.28643-.17406.06136-.14026-.0171-.29822-.17525-.35264l-1.43463-.49393,1.40057-.71716c.14703-.07532.1973-.24192.11253-.37234-.08507-.1304-.27277-.17539-.41981-.09981l-1.40072.71725.2352-1.34894c.02596-.14877-.08897-.28796-.25672-.31099-.1655-.02221-.32453.07878-.35065.2277l-.31079,1.78195-2.07156,1.06072v-2.12147l1.58458-1.12974c.13234-.09421.15335-.26574.04696-.3831-.10607-.11739-.29978-.13602-.43196-.04165l-1.19958.85511V.27252c0-.1505-.13759-.27252-.30728-.27252-.1697,0-.30729.12202-.30729.27252v1.43452l-1.19958-.85511c-.13204-.09396-.32575-.07559-.43197.04165-.10638.11736-.08537.28889.04697.3831l1.58458,1.12974v2.12147l-2.07169-1.06079-.31051-1.78188c-.02596-.14879-.1832-.25125-.35065-.2277-.16775.02303-.28269.16222-.25672.31099l.23518,1.34901-1.40085-.71732c-.14765-.07558-.33505-.0306-.41982.09981-.08477.13042-.03451.29702.11253.37234l1.40075.71726-1.43481.49383c-.15814.05442-.23661.21224-.17524.35264.04711.10792.16339.17406.28643.17406.03706,0,.07457-.00599.11117-.01863l1.89529-.65226,2.07154,1.06072-2.07154,1.06075-1.89529-.65228c-.15814-.05442-.33639.01504-.3976.15543-.06136.14039.0171.29822.17524.35264l1.43481.49385-1.40075.71725c-.14703.07532-.1973.24192-.11253.37233.05702.08744.16024.13628.26648.13628.05206,0,.10487-.01171.15335-.03647l1.40085-.7173-.23518,1.349c-.02596.14879.08897.28798.25672.31101.0159.00211.03166.00319.04741.00319.14899,0,.27983-.09621.30324-.23088l.31051-1.78188,2.07169-1.06081v2.12147l-1.58458,1.12976c-.13234.09421-.15335.26574-.04697.3831.10608.11725.29978.13588.43197.04165l1.19958-.85511v1.43452c0,.1505.13759.27252.30729.27252.16969,0,.30728-.12202.30728-.27252v-1.43452l1.19958.85511c.05671.04047.12468.06015.19235.06015.08987,0,.179-.03487.23961-.10181.10639-.11736.08538-.28889-.04696-.3831l-1.58458-1.12976v-2.12147l2.07159,1.06075.31077,1.78194c.02356.13468.15439.23088.30324.23088.01575,0,.0315-.00107.04741-.00319.16775-.02303.28268-.16222.25672-.31101l-.23517-1.34891,1.40069.71722c.04846.02476.10128.03647.15335.03647.10622,0,.20945-.04884.26647-.13628.08477-.1304.03451-.29701-.11253-.37233l-1.4007-.71723,1.43476-.49386c.15815-.05442.23661-.21226.17525-.35264Z"/>
</svg>