<?xml version="1.0" encoding="UTF-8"?>
<svg id="Layer_1" data-name="Layer 1" xmlns="http://www.w3.org/2000/svg" width="10" height="10" version="1.1" viewBox="0 0 10 10">
  <defs>
    <style>
      .cls-1 {
        fill: #38d1c3;
        stroke-width: 0px;
      }
    </style>
  </defs>
  <path class="cls-1" d="M3.26294,7.0505h1.56171V2.71712c-.10535.06143-.50033.23713-.79853.34213l-.71926.25427-.22785-.53498,1.7717-.82425c.11428-.05286.1932-.07071.34213-.07071h.41249v5.16692h1.31565v.64925h-3.65805v-.64925Z"/>
  <path class="cls-1" d="M5,.65c2.3986,0,4.35,1.9514,4.35,4.35s-1.9514,4.35-4.35,4.35S.65,7.3986.65,5,2.6014.65,5,.65M5,0C2.23858,0,0,2.23858,0,5s2.23858,5,5,5,5-2.23858,5-5S7.76142,0,5,0h0Z"/>
</svg>