<svg id="Layer_1" data-name="Layer 1"
     xmlns="http://www.w3.org/2000/svg"
     width="24" height="24"
     version="1.1"
     viewBox="0 0 24 24">

  <defs>
    <style>
      .cls-1 {
        fill: #38d1c3;
        stroke-width: 0px;
      }
    </style>
  </defs>

  <path class="cls-1"
        d="M23.842,6.666c-.197-.455-.553-.804-1.003-.982L8.755.122c-.205-.08-.42-.122-.638-.122-.745,0-1.422.487-1.684,1.212l-.401,1.109-1.216-.217c-.979-.177-1.913.523-2.078,1.529l-.146.891h-.793C.807,4.523,0,5.361,0,6.392v15.739c0,1.03.807,1.869,1.798,1.869h15.056c.282,0,.555-.067.8-.195l-.022.191.5-.506c.193-.195.338-.424.43-.678l5.322-14.724c.167-.464.152-.97-.043-1.422ZM22.777,7.668l-3.243,8.972,1.591-9.732c.033-.201.033-.403.003-.6l1.287.508c.155.061.278.183.347.342.071.161.076.342.015.51ZM18.554,5.786l.9.161c.338.061.565.402.506.761l-1.308,8.004V6.393c0-.208-.034-.412-.099-.607ZM7.214,2.532l.325-.898c.118-.326.483-.505.792-.381l6.828,2.697-7.945-1.418ZM17.473,22.131c0,.363-.277.657-.618.657H1.799c-.341,0-.618-.295-.618-.657V6.393c0-.363.277-.657.618-.657h15.056c.341,0,.618.295.618.657v15.738ZM3.788,4.523l.113-.69c.058-.352.36-.601.712-.536l6.871,1.226H3.788Z"/>

  <path class="cls-1"
        d="M12.763,12.232c-.212-.403-.619-.653-1.061-.653-.405,0-.78.209-1.005.559l-2.733,4.26c-.048.076-.152.089-.215.028l-1.503-1.473c-.225-.221-.52-.342-.829-.342-.437,0-.841.245-1.053.639l-1.963,3.626c-.2.371-.197.811.008,1.177.208.372.579.594.992.594h11.851c.411,0,.78-.219.989-.587.206-.363.212-.801.019-1.17l-3.497-6.656ZM15.336,19.517c-.03.053-.069.053-.083.053H3.401c-.045,0-.069-.027-.084-.055-.015-.025-.027-.068,0-.118l1.962-3.625c.03-.054.08-.086.138-.086.041,0,.074.014.105.044l1.503,1.474c.515.504,1.423.397,1.814-.215l2.733-4.261c.04-.064.206-.107.269.014l3.496,6.655c.028.053.011.097-.002.118h0Z"/>

  <path class="cls-1"
        d="M7.213,12.846c1.112,0,2.016-.941,2.016-2.097s-.904-2.097-2.016-2.097-2.016.941-2.016,2.097.904,2.097,2.016,2.097ZM6.244,10.748c0-.563.434-1.022.968-1.022s.969.458.969,1.022-.435,1.023-.969,1.023-.968-.459-.968-1.023Z"/>

</svg>