<?xml version="1.0" encoding="utf-8"?>
<!-- Generator: Adobe Illustrator 24.3.0, SVG Export Plug-In . SVG Version: 6.00 Build 0)  -->
<svg version="1.1" id="Layer_1" xmlns="http://www.w3.org/2000/svg" xmlns:xlink="http://www.w3.org/1999/xlink" x="0px" y="0px"
	 viewBox="0 0 100 12" style="enable-background:new 0 0 100 12;" xml:space="preserve">
<style type="text/css">
	.st0{fill:#626970;}
</style>
<g>
	<polygon class="st0" points="89.88,7.38 89.88,0 84.29,0 84.29,12 100,12 100,7.38 	"/>
	<g>
		<polygon class="st0" points="12.1,3.54 5.59,3.54 5.59,0 0,0 0,12 5.59,12 5.59,8.17 12.1,8.17 12.1,12 17.68,12 17.68,0 12.1,0 
					"/>
	</g>
	<g>
		<polygon class="st0" points="34.93,0 34.6,0 28.13,0 31.37,5.51 35.18,12 41.97,12 41.98,12 34.93,0 		"/>
		<polygon class="st0" points="21.04,12 27.56,12 31.03,6.09 27.77,0.54 		"/>
	</g>
	<g>
		<polygon class="st0" points="73.89,0 73.56,0 67.09,0 70.33,5.51 74.14,12 80.93,12 80.94,12 73.9,0 		"/>
		<polygon class="st0" points="60,12 66.52,12 69.99,6.09 66.73,0.54 		"/>
	</g>
	<g>
		<polygon class="st0" points="61.46,0 54.66,0 50.85,6.49 47.62,12 54.08,12 54.41,12 54.42,12 61.46,0 		"/>
		<polygon class="st0" points="47.04,0 40.52,0 47.25,11.46 50.51,5.91 		"/>
	</g>
</g>
</svg>
