<?xml version="1.0" encoding="UTF-8"?>
<svg id="Layer_1" data-name="Layer 1" xmlns="http://www.w3.org/2000/svg" width="10" height="10" version="1.1" viewBox="0 0 10 10">
  <defs>
    <style>
      .cls-1 {
        fill: #fff;
        stroke-width: 0px;
      }
    </style>
  </defs>
  <g id="Layer_2" data-name="Layer 2">
    <g id="Layer_1-2" data-name="Layer 1-2">
      <path class="cls-1" d="M10,6.56l-.62,3.44h-.63c-1.551.01-3.075-.401-4.41-1.19-1.303-.763-2.387-1.847-3.15-3.15C.401,4.325-.01,2.801,0,1.25v-.63l3.44-.62,1.25,3.12-1.1,1.1c.539.899,1.291,1.651,2.19,2.19l1.1-1.1,3.12,1.25-3.12-1.25,3.12,1.25ZM5.49,6.93c-1.013-.561-1.85-1.392-2.42-2.4l-.24-.43.33-.33.84-.77-.95-2.3-2.43.45v.1c-.003,1.443.384,2.859,1.12,4.1.692,1.213,1.697,2.218,2.91,2.91,1.241.736,2.657,1.123,4.1,1.12h.1l.45-2.38-2.3-.95-.8.79-.33.35-.43-.26.43.26-.43-.26h.05ZM5,.62v-.62c.885,0,1.755.234,2.52.68.741.441,1.359,1.059,1.8,1.8.446.765.68,1.635.68,2.52h-.62c-.006-.777-.216-1.54-.61-2.21-.371-.651-.909-1.189-1.56-1.56-.67-.394-1.433-.604-2.21-.61ZM7.5,5c.022-1.358-1.061-2.478-2.419-2.5-.027,0-.054,0-.081,0v-.62c1.718-.006,3.114,1.382,3.12,3.1,0,.007,0,.013,0,.02h-.62ZM5.62,5c-.337.006-.614-.263-.62-.6,0-.007,0-.013,0-.02-.009-.169.057-.333.18-.45.113-.121.274-.187.44-.18.342-.006.624.267.63.61,0,.007,0,.013,0,.02.007.166-.059.327-.18.44-.117.123-.281.189-.45.18Z"/>
    </g>
  </g>
</svg>