<?xml version="1.0" encoding="UTF-8"?>
<svg id="Layer_1" data-name="Layer 1" xmlns="http://www.w3.org/2000/svg" width="24" height="24" version="1.1" viewBox="0 0 24 24">
  <defs>
    <style>
      .cls-1 {
        fill: #626970;
        stroke-width: 0px;
      }
    </style>
  </defs>
  <path class="cls-1" d="M12,9.6h0c-.3,0-.5-.2-.5-.5v-1.6c0-.3.2-.5.5-.5h0c.3,0,.5.2.5.5v1.6c0,.2-.2.5-.5.5Z"/>
  <path class="cls-1" d="M17.9,13c-.2,0-.3-.1-.4-.3s-.1-.5.2-.7l1.4-.8c.2-.1.5-.1.7.2.1.2.1.5-.2.7l-1.4.8c-.1,0-.2.1-.3.1Z"/>
  <path class="cls-1" d="M20.4,16.4h-1.6c-.3,0-.5-.2-.5-.5s.2-.5.5-.5h1.6c.3,0,.5.2.5.5,0,.2-.2.5-.5.5Z"/>
  <path class="cls-1" d="M19.3,20.6c-.1,0-.2,0-.3-.1l-1.4-.8c-.2-.1-.3-.4-.2-.7.1-.2.4-.3.7-.2l1.4.8c.2.1.3.4.2.7-.1.2-.2.3-.4.3Z"/>
  <path class="cls-1" d="M4.7,20.6c-.2,0-.3-.1-.4-.3-.1-.2-.1-.5.2-.7l1.4-.8c.2-.1.5-.1.7.2.1.2.1.5-.2.7l-1.4.8c-.1.1-.2.1-.3.1Z"/>
  <path class="cls-1" d="M5.2,16.4h-1.6c-.3,0-.5-.2-.5-.5s.2-.5.5-.5h1.6c.3,0,.5.2.5.5,0,.2-.2.5-.5.5Z"/>
  <path class="cls-1" d="M6.1,13c-.1,0-.2,0-.3-.1l-1.4-.8c-.2-.1-.3-.4-.2-.7.1-.2.4-.3.7-.2l1.5.8c.2.1.3.4.2.7-.2.2-.3.3-.5.3Z"/>
  <path class="cls-1" d="M8.6,10.5c-.2,0-.3-.1-.4-.3l-.8-1.4c-.2-.2-.1-.5.1-.7.3-.1.6,0,.7.2l.8,1.4c.1.2.1.5-.2.7,0,0-.1.1-.2.1Z"/>
  <path class="cls-1" d="M12,9.6h0c-.3,0-.5-.2-.5-.5v-1.6c0-.3.2-.5.5-.5h0c.3,0,.5.2.5.5v1.6c0,.2-.2.5-.5.5Z"/>
  <path class="cls-1" d="M20.3,22.9c-.1,0-.2,0-.2-.1-.9-.4-1.8-.8-2.7-1.1-1.7-.5-3.6-.7-5.4-.7-2.8,0-5.6.6-8.1,1.9-.2.1-.6,0-.7-.2-.1-.2,0-.6.2-.7,2.7-1.3,5.5-2,8.5-2,1.9,0,3.9.3,5.7.9,1,.3,1.9.7,2.8,1.2.2.1.3.4.2.7.1,0-.1.1-.3.1Z"/>
  <path class="cls-1" d="M2.6,21.1c-.2,0-.4-.1-.5-.3-.1-.2-.2-.5-.3-.7-.5-1.3-.8-2.7-.8-4.1,0-6.1,4.9-11,11-11,.6,0,1.3.1,1.9.2.3,0,.5.3.4.6,0,.3-.3.5-.6.4-.5-.1-1.1-.2-1.7-.2-5.5,0-10,4.5-10,10,0,1.3.2,2.5.7,3.7.1.3.2.5.3.7.1.2,0,.6-.2.7h-.2Z"/>
  <path class="cls-1" d="M20.3,22.9c-.1,0-.2,0-.3-.1-.2-.2-.3-.5-.1-.7,1.4-1.8,2.1-3.9,2.1-6.1,0-2.3-.8-4.5-2.2-6.3-.3-.4-.7-.8-1.1-1.2-.2-.2-.2-.5,0-.7s.5-.2.7,0c.4.4.8.8,1.2,1.3,1.6,1.9,2.4,4.4,2.4,6.9s-.8,4.8-2.3,6.7c-.1.2-.3.2-.4.2Z"/>
  <path class="cls-1" d="M12.2,17.6h0c-.2,0-.5-.1-.7-.2-.1.1-.3.1-.5,0l-5.4-2.8c-.2-.1-.3-.4-.3-.6.1-.2.3-.4.5-.4l6.1.4c.2,0,.3.1.4.2.2,0,.5.1.7.2.4.2.7.6.8,1s0,.9-.2,1.3c-.3.6-.8.9-1.4.9ZM11.4,16.3c.1,0,.2,0,.3.1l.1.1c.1.1.2.1.3.1.2,0,.4-.1.6-.3.1-.2.1-.3.1-.5s-.2-.3-.3-.4c-.1-.1-.3-.1-.4-.1s-.3,0-.4-.1c-.1,0-.1-.1-.1-.2l-3.4-.2,3,1.5s.1,0,.2,0Z"/>
  <path class="cls-1" d="M16.1,10c-.1,0-.2,0-.3-.1s-.2-.2-.2-.4l-.6-5.4c0-.2.1-.4.2-.5.2-.1.4-.1.5,0l.8.5,1.6-2.8c.1-.2.4-.3.7-.2l3,1.8c.2.1.3.2.3.3s0,.3-.1.4l-1.6,2.8.8.5c.2.1.3.3.2.5,0,.2-.1.4-.3.4l-5,2.2c.1,0,0,0,0,0ZM16.1,5l.4,3.7,3.4-1.5-.4-.2c-.2-.1-.3-.4-.2-.7l1.7-2.8-2.1-1.3-1.7,2.8c-.1.1-.2.2-.3.2s-.3,0-.4-.1l-.4-.1Z"/>
</svg>