<?xml version="1.0" encoding="UTF-8"?>
<svg id="Layer_1" data-name="Layer 1" xmlns="http://www.w3.org/2000/svg" width="98" height="33" version="1.1" viewBox="0 0 98 33">
  <defs>
    <style>
      .cls-1 {
        fill: #000;
      }

      .cls-1, .cls-2 {
        stroke-width: 0px;
      }

      .cls-2 {
        fill: #fff;
      }
    </style>
  </defs>
  <rect class="cls-1" width="98" height="33"/>
  <g>
    <path class="cls-2" d="M12.562,26.3h-4.312V6.7h14.448c4.956,0,9.268,1.876,9.268,6.72s-4.312,6.916-9.268,6.916h-10.136v5.964ZM12.562,16.528h9.576c3.136,0,5.348-.756,5.348-3.08,0-2.296-2.212-2.94-5.348-2.94h-9.576v6.02Z"/>
    <path class="cls-2" d="M39.918,26.3h-4.312V6.7h14.448c5.964,0,9.688,2.408,9.688,6.384,0,3.92-3.444,6.16-9.604,6.16h-1.54l3.108,1.428,10.304,5.488v.14h-7.756l-14.336-7.7v7.7ZM39.918,10.452v5.488h9.744c3.92,0,5.6-.924,5.6-2.744,0-1.876-1.792-2.744-5.04-2.744h-10.304Z"/>
    <path class="cls-2" d="M62.626,16.5c0-6.104,5.656-10.416,13.692-10.416s13.692,4.312,13.692,10.416-5.656,10.416-13.692,10.416-13.692-4.312-13.692-10.416ZM85.53,16.5c0-3.892-3.808-6.608-9.212-6.608s-9.212,2.716-9.212,6.608,3.808,6.608,9.212,6.608,9.212-2.716,9.212-6.608Z"/>
  </g>
</svg>