<svg xmlns="http://www.w3.org/2000/svg" viewBox="0 0 7.5 10"><defs><style>.cls-1{fill:#fff;}</style></defs><g id="Layer_2" data-name="Layer 2"><g id="Layer_1-2" data-name="Layer 1"><path class="cls-1" d="M7.5,2.5V10H0V0H7.5V2.5Zm-.62,0V.62H.62V2.5Zm0,.62H.62V9.38H6.88ZM4.06,7.81h.32v.63H1.25V7.81ZM1.41,4.38a.47.47,0,1,1,.93,0,.45.45,0,0,1-.46.46A.45.45,0,0,1,1.41,4.38Zm.47,1.4a.47.47,0,1,1-.47.47A.46.46,0,0,1,1.88,5.78Zm1.4-1.4a.47.47,0,1,1,.47.46A.46.46,0,0,1,3.28,4.38Zm.47,1.4a.47.47,0,1,1-.47.47A.47.47,0,0,1,3.75,5.78Zm1.41-1.4a.47.47,0,1,1,.46.46A.45.45,0,0,1,5.16,4.38Zm.46,1.4a.47.47,0,1,1-.46.47A.46.46,0,0,1,5.62,5.78ZM5.16,8.12a.47.47,0,0,1,.93,0,.47.47,0,1,1-.93,0Z"/></g></g></svg>