<svg xmlns="http://www.w3.org/2000/svg" viewBox="0 0 10 10"><defs><style>.cls-1{fill:#fff;}</style></defs><g id="Layer_2" data-name="Layer 2"><g id="Layer_1-2" data-name="Layer 1"><path class="cls-1" d="M3.75,3.3v0l1.93,2L6,5l.45-.45L6.86,5l2.69,2.7.45.44-.45.45-1,1L8.12,10l-.44-.45L5,6.86l-.45-.45L5,6l.27-.28L3.3,3.75H1.88L0,1.25,1.25,0l2.5,1.88V3.3ZM3.24,4.57.45,7.36,3.24,4.57,3.69,5,.88,7.81,2.19,9.12,4.28,7l.43.45L2.64,9.55,2.19,10l-.45-.45L.45,8.26,0,7.81l.45-.45ZM3.12,2.19v0L1.31.82l-.49.49L2.19,3.12h.93ZM1.89,7.66l.45.45-.45-.45.45-.45.45.45-.45.45ZM9.3,2.52l-1,1-.19.18H6.25V1.93l.18-.19L7.48.7a2.41,2.41,0,0,0-.6-.08A2.48,2.48,0,0,0,5.62,1a2.67,2.67,0,0,0-.89.88l-.49-.38A2.93,2.93,0,0,1,5.35.39,3,3,0,0,1,6.88,0,3.17,3.17,0,0,1,8,.2a2.73,2.73,0,0,1,.58.31L8.11,1,6.88,2.19v.93h.93L9,1.89l.47-.46A3.13,3.13,0,0,1,10,3.12a3,3,0,0,1-.41,1.55A3.19,3.19,0,0,1,8.54,5.78l-.45-.47A2.51,2.51,0,0,0,9,4.41a2.32,2.32,0,0,0,.36-1.29A2.41,2.41,0,0,0,9.3,2.52Zm-.18,5.6-1,1,1-1L6.41,5.41l-1,1L8.12,9.12Z"/></g></g></svg>