<?xml version="1.0" encoding="UTF-8"?>
<svg id="Layer_1" data-name="Layer 1" xmlns="http://www.w3.org/2000/svg" width="24" height="24" version="1.1" viewBox="0 0 24 24">
  <defs>
    <style>
      .cls-1 {
        fill: #626970;
        stroke-width: 0px;
      }
    </style>
  </defs>
  <path class="cls-1" d="M11.7,20c-.2,0-.3-.1-.4-.2l-1.7-2.3h-5.4c-.1,0-.3-.1-.4-.2-.1-.1-.2-.2-.2-.4v-2.4c0-.3.2-.5.5-.5h0c.3,0,.5.2.5.5v1.8h5.2c.2,0,.3.1.4.2l1.7,2.3h5.5v-2.7c0-.1.1-.3.2-.4.1-.1.2-.2.4-.2h1.8c.3,0,.5.2.5.5v1.3h1c.2-.7.7-2.4.7-4.5,0-1.9-.4-3.1-.6-3.5h-1.1v1.3c0,.3-.2.5-.5.5h-1.8c-.1,0-.3-.1-.4-.2-.1-.1-.2-.2-.2-.4v-1.8h-2.6c-.3,0-.5-.2-.5-.5v-1.3h-7.4v1.3c0,.1-.1.3-.2.4,0,.4-.2.4-.3.4h-1.8v3.7c0,.3-.2.5-.5.5h0c-.3,0-.5-.2-.5-.5v-4.3c0-.1.1-.3.2-.4,0,0,.1,0,.3,0h1.8v-1.3c0-.1.1-.3.2-.4s.2-.2.4-.2h8.5c.3,0,.5.2.5.5v1.3h2.6c.3,0,.5.2.5.5v1.8h.7v-1.3c0-.3.2-.5.5-.5h1.9c.2,0,.3.1.4.2,0,.1,1,1.4,1,4.3s-.8,5.1-.9,5.2c-.1.2-.3.3-.5.3h-1.9c-.3,0-.5-.2-.5-.5v-1.3h-.7v2.7c0,.3-.2.5-.5.5l-6.4.2h0Z"/>
  <path class="cls-1" d="M1.7,13.3c-.3,0-.5-.2-.5-.5s.2-.5.5-.5h2.3c.3,0,.5.2.5.5s-.2.5-.5.5H1.7Z"/>
  <path class="cls-1" d="M1.5,17.6c-.3,0-.5-.2-.5-.5v-8.5c0-.4.2-.6.5-.6h0c.3,0,.5.2.5.5v8.5c.1.3-.2.6-.5.6h0Z"/>
  <path class="cls-1" d="M10.8,7.2c-.3,0-.5-.2-.5-.5v-1.9c0-.3.2-.5.5-.5h0c.3,0,.5.2.5.5v1.9c0,.3-.2.5-.5.5h0Z"/>
  <path class="cls-1" d="M7.1,5.1c-.3,0-.5-.2-.5-.5s.3-.6.5-.6h7.2c.3,0,.5.2.5.5s-.2.5-.5.5l-7.2.1h0Z"/>
</svg>