<?xml version="1.0" encoding="UTF-8"?>
<svg id="Layer_1" data-name="Layer 1" xmlns="http://www.w3.org/2000/svg" width="24" height="24" version="1.1" viewBox="0 0 24 24">
  <defs>
    <style>
      .cls-1 {
        fill: #626970;
        stroke-width: 0px;
      }
    </style>
  </defs>
  <path class="cls-1" d="M4.8,10.5h-.5l-.8-.2c-.6-.1-1.1-.5-1.4-1-.3-.4-.5-1-.3-1.6l1-4.9c.2-1.1,1.1-1.8,2.2-1.8h.5l.8.2c.6.1,1.1.5,1.4,1,.3.5.4,1.1.3,1.6l-1,4.9c-.3,1.1-1.2,1.8-2.2,1.8ZM5,2.3c-.4,0-.8.3-.9.7l-1,5c0,.2,0,.5.1.7.1.1.3.3.6.3l.8.2h.2c.4,0,.8-.3.9-.7l1-4.9c0-.2,0-.5-.1-.7-.2-.2-.4-.3-.6-.4l-.8-.2h-.2Z"/>
  <path class="cls-1" d="M18.9,11.5c-.2,0-.4,0-.5-.1l-.8-.2c-.6-.1-1.1-.5-1.4-1-.3-.5-.4-1.1-.3-1.7l1.2-4.9c.2-1,1.1-1.7,2.1-1.7.2,0,.4,0,.5.1l.8.2c.6.1,1.1.5,1.4,1s.4,1.1.3,1.7l-1.2,4.9c-.2,1-1.1,1.7-2.1,1.7ZM19.3,3.3c-.4,0-.8.3-.9.7l-1.2,4.9c-.1.2,0,.5.1.7s.3.3.6.4l.8.2h.2c.4,0,.8-.3.9-.7l1.2-4.9c.1-.2,0-.5-.1-.7s-.3-.3-.6-.4l-.8-.2c-.1,0-.2,0-.2,0Z"/>
  <path class="cls-1" d="M11.9,8.5c-1.3,0-2.3-1-2.3-2.3s1-2.3,2.3-2.3,2.3,1,2.3,2.3-1.1,2.3-2.3,2.3ZM11.9,5.2c-.5,0-1,.4-1,1,0,.5.4,1,1,1,.5,0,1-.4,1-1-.1-.5-.5-1-1-1Z"/>
  <path class="cls-1" d="M10.2,6.9h-3.3c-.4,0-.7-.3-.7-.7s.3-.7.7-.7h3.3c.4,0,.7.3.7.7s-.3.7-.7.7Z"/>
  <path class="cls-1" d="M16.9,6.9h-3.3c-.4,0-.7-.3-.7-.7s.3-.7.7-.7h3.3c.4,0,.7.3.7.7-.1.4-.4.7-.7.7Z"/>
  <path class="cls-1" d="M5.2,23h-.8c-1.2,0-2.2-1-2.2-2.2v-5c0-1.2,1-2.2,2.2-2.2h.8c1.2,0,2.2,1,2.2,2.2v5c.1,1.2-.9,2.2-2.2,2.2ZM4.4,14.9c-.5,0-.9.4-.9.9v5c0,.5.4.9.9.9h.8c.5,0,.9-.4.9-.9v-5c0-.5-.4-.9-.9-.9h-.8Z"/>
  <path class="cls-1" d="M19.5,23h-.8c-1.2,0-2.2-1-2.2-2.2v-5c0-1.2,1-2.2,2.2-2.2h.8c1.2,0,2.2,1,2.2,2.2v5c.1,1.2-.9,2.2-2.2,2.2ZM18.7,14.9c-.5,0-.9.4-.9.9v5c0,.5.4.9.9.9h.8c.5,0,.9-.4.9-.9v-5c0-.5-.4-.9-.9-.9h-.8Z"/>
  <path class="cls-1" d="M11.9,20.6c-1.3,0-2.3-1-2.3-2.3s1-2.3,2.3-2.3,2.3,1,2.3,2.3c0,1.2-1.1,2.3-2.3,2.3ZM11.9,17.3c-.5,0-1,.4-1,1,0,.5.4,1,1,1,.5,0,1-.4,1-1-.1-.6-.5-1-1-1Z"/>
  <path class="cls-1" d="M10.2,18.9h-3.3c-.4,0-.7-.3-.7-.7s.3-.7.7-.7h3.3c.4,0,.7.3.7.7s-.3.7-.7.7Z"/>
  <path class="cls-1" d="M16.9,18.9h-3.3c-.4,0-.7-.3-.7-.7s.3-.7.7-.7h3.3c.4,0,.7.3.7.7-.1.4-.4.7-.7.7Z"/>
  <path class="cls-1" d="M11.9,17.3c-.4,0-.7-.3-.7-.7V7.8c0-.4.3-.7.7-.7s.7.3.7.7v8.8c-.1.4-.4.7-.7.7Z"/>
</svg>