<?xml version="1.0" encoding="UTF-8"?>
<svg id="Layer_1" data-name="Layer 1" xmlns="http://www.w3.org/2000/svg" width="24" height="24" version="1.1" viewBox="0 0 24 24">
  <defs>
    <style>
      .cls-1 {
        fill: #626970;
        stroke-width: 0px;
      }
    </style>
  </defs>
  <path class="cls-1" d="M12,23c-2.8,0-5.6-1-7.7-3.1C0,15.6-.1,8.6,4.1,4.3,7.8.5,13.6-.1,18,2.8c.3.2.4.6.2.8-.2.3-.5.4-.8.2-3.9-2.5-9.1-2-12.4,1.3-3.8,3.9-3.7,10.1.1,13.9,3.9,3.8,10.1,3.7,13.9-.1,3.3-3.3,3.7-8.6,1.1-12.4-.2-.3-.1-.7.2-.8.3-.2.7-.1.8.2,3,4.3,2.5,10.2-1.2,13.9-2.2,2.1-5,3.2-7.9,3.2Z"/>
  <path class="cls-1" d="M16.59998,7.70001c-.29999,0-.59998.29999-.59998.59998v3.40002h-3.40002v-3.40002c0-.29999-.29999-.59998-.59998-.59998s-.59998.29999-.59998.59998v3.40002h-3.40002v-3.40002c0-.39996-.20001-.59998-.59998-.59998-.30005,0-.60004.29999-.60004.59998v8c0,.29999.29999.60004.60004.60004.39996,0,.59998-.20001.59998-.60004v-3.39996h3.40002v3.39996c0,.29999.29999.60004.59998.60004s.59998-.20001.59998-.60004v-3.39996h3.40002v3.39996c0,.29999.29999.60004.59998.60004.30005,0,.60004-.20001.60004-.60004v-8c0-.29999-.29999-.59998-.60004-.59998Z"/>
</svg>