<?xml version="1.0" encoding="UTF-8"?>
<svg id="Layer_1" data-name="Layer 1" xmlns="http://www.w3.org/2000/svg" width="120" height="33" version="1.1" viewBox="0 0 120 33">
  <defs>
    <style>
      .cls-1 {
        fill: #00cabf;
      }

      .cls-1, .cls-2 {
        stroke-width: 0px;
      }

      .cls-2 {
        fill: #fff;
      }
    </style>
  </defs>
  <rect class="cls-1" width="120" height="33"/>
  <g>
    <path class="cls-2" d="M8.25,16.5c0-6.384,5.516-10.416,14.028-10.416,3.388,0,6.86.644,10.584,2.688v4.396c-3.696-2.52-7.308-3.276-10.584-3.276-5.236,0-9.548,1.988-9.548,6.608,0,4.676,4.564,6.607,9.492,6.607,2.856,0,6.58-.783,10.64-3.191v4.452c-4.144,2.352-8.764,2.548-10.78,2.548-8.344,0-13.832-4.061-13.832-10.416Z"/>
    <path class="cls-2" d="M52.966,10.564h-5.236v11.872h8.064l-2.52,3.864h-16.772v-3.864h6.916v-11.872h-6.916v-3.864h18.984l-2.521,3.864Z"/>
    <path class="cls-2" d="M72.062,26.3h-4.312v-15.736h-11.676l2.52-3.864h24.22v3.864h-10.752v15.736Z"/>
    <path class="cls-2" d="M100.174,26.3h-4.312v-6.888l-12.068-12.712h5.74l8.456,8.932,8.483-8.932h5.74l-12.04,12.712v6.888Z"/>
  </g>
</svg>