<?xml version="1.0" encoding="UTF-8"?>
<svg id="Layer_1" data-name="Layer 1" xmlns="http://www.w3.org/2000/svg" width="7.5" height="7.5" version="1.1" viewBox="0 0 7.5 7.5">
  <defs>
    <style>
      .cls-1 {
        fill: #fff;
        stroke-width: 0px;
      }
    </style>
  </defs>
  <path class="cls-1" d="M6.9.6v6.3H.6V.6h6.3M6.997,0H.503C.225,0,0,.225,0,.503v6.494c0,.278.225.503.503.503h6.494c.278,0,.503-.225.503-.503V.503c0-.278-.225-.503-.503-.503h0Z"/>
  <path class="cls-1" d="M2.556,5.493h-.76v-3.455h2.547c.873,0,1.634.331,1.634,1.184s-.76,1.219-1.634,1.219h-1.787v1.051ZM2.556,3.771h1.688c.553,0,.943-.133.943-.543,0-.405-.39-.518-.943-.518h-1.688v1.061Z"/>
</svg>